<?xml version="1.0" encoding="iso-8859-1"?>
<!-- Generator: Adobe Illustrator 17.1.0, SVG Export Plug-In . SVG Version: 6.00 Build 0)  -->
<!DOCTYPE svg PUBLIC "-//W3C//DTD SVG 1.1//EN" "http://www.w3.org/Graphics/SVG/1.1/DTD/svg11.dtd">
<svg version="1.1" id="Capa_1" xmlns="http://www.w3.org/2000/svg" xmlns:xlink="http://www.w3.org/1999/xlink" x="0px" y="0px"
	 viewBox="0 0 480.801 480.801" style="enable-background:new 0 0 480.801 480.801;" xml:space="preserve">
<path d="M435.557,178.362h-42.831v-62.438c0-5.522-4.477-10-10-10h-13.537V92.81c14.242-4.302,24.644-17.54,24.644-33.165
	c0-15.498-20.199-46.237-26.389-55.29C365.58,1.63,362.491,0,359.189,0s-6.391,1.63-8.254,4.355
	c-6.19,9.052-26.389,39.791-26.389,55.289c0,15.626,10.402,28.863,24.643,33.165v13.115h-13.536c-5.523,0-10,4.478-10,10v62.438
	h-51.716v-62.438c0-5.522-4.477-10-10-10H250.4V92.81c14.241-4.302,24.643-17.54,24.643-33.165
	c0-15.498-20.198-46.237-26.389-55.289C246.791,1.63,243.702,0,240.4,0s-6.391,1.63-8.254,4.355
	c-6.19,9.052-26.389,39.791-26.389,55.289c0,15.626,10.402,28.863,24.643,33.165v13.115h-13.537c-5.523,0-10,4.478-10,10v62.438
	h-51.716v-62.438c0-5.522-4.477-10-10-10h-13.536V92.81c14.241-4.302,24.643-17.54,24.643-33.165
	c0-15.498-20.198-46.237-26.389-55.289C128.002,1.63,124.913,0,121.611,0s-6.391,1.63-8.254,4.354
	c-6.19,9.053-26.389,39.792-26.389,55.29c0,15.626,10.402,28.863,24.644,33.165v13.115H98.075c-5.523,0-10,4.478-10,10v62.438
	H45.244c-19.033,0-34.517,15.484-34.517,34.518v257.921c0,5.522,4.477,10,10,10h439.348c5.523,0,10-4.478,10-10V212.88
	C470.074,193.847,454.59,178.362,435.557,178.362z M344.546,59.645c0-4.707,6.653-17.99,14.643-31.163
	c7.99,13.173,14.644,26.456,14.644,31.163c0,8.074-6.569,14.643-14.644,14.643C351.115,74.287,344.546,67.719,344.546,59.645z
	 M225.757,59.645c0-4.707,6.653-17.99,14.643-31.162c7.99,13.172,14.643,26.455,14.643,31.162c0,8.074-6.569,14.643-14.643,14.643
	S225.757,67.719,225.757,59.645z M106.968,59.645c0-4.707,6.653-17.99,14.644-31.163c7.99,13.173,14.643,26.456,14.643,31.163
	c0,8.074-6.569,14.643-14.643,14.643C113.537,74.287,106.968,67.719,106.968,59.645z M345.653,125.925h27.073v52.438h-27.073
	V125.925z M226.864,125.925h27.073v52.438h-27.073V125.925z M108.075,125.925h27.073v52.438h-27.073V125.925z M45.244,198.362
	h52.831h47.073h71.716h47.073h71.716h47.073h52.831c8.005,0,14.517,6.513,14.517,14.518v29.687
	c-9.228,2.799-14.952,9.169-19.418,14.153c-5.406,6.032-8.281,8.932-14.523,8.932s-9.118-2.899-14.523-8.932
	c-5.894-6.577-13.966-15.585-29.418-15.585c-15.451,0-23.522,9.008-29.416,15.585c-5.405,6.032-8.28,8.932-14.52,8.932
	s-9.116-2.899-14.521-8.932c-5.894-6.577-13.965-15.585-29.416-15.585s-23.521,9.008-29.415,15.585
	c-5.405,6.032-8.28,8.932-14.52,8.932s-9.115-2.899-14.52-8.932c-5.893-6.577-13.964-15.585-29.415-15.585
	c-15.449,0-23.52,9.008-29.413,15.586c-5.404,6.031-8.278,8.931-14.516,8.931c-6.238,0-9.112-2.899-14.516-8.931
	c-5.893-6.578-13.963-15.586-29.412-15.586c-15.451,0-23.522,9.008-29.415,15.585c-5.405,6.032-8.279,8.932-14.519,8.932
	s-9.114-2.899-14.519-8.932c-4.465-4.983-10.188-11.353-19.415-14.152V212.88C30.727,204.875,37.239,198.362,45.244,198.362z
	 M30.727,460.801v-22.167h370.008c5.523,0,10-4.478,10-10s-4.477-10-10-10H30.727v-39.339h370.008c5.523,0,10-4.478,10-10
	s-4.477-10-10-10H30.727v-39.34h370.008c5.523,0,10-4.478,10-10s-4.477-10-10-10H30.727V265.31c1.379,1.283,2.825,2.865,4.519,4.757
	c5.893,6.577,13.964,15.585,29.415,15.585s23.521-9.008,29.415-15.585c5.405-6.032,8.28-8.932,14.52-8.932
	c6.238,0,9.112,2.899,14.516,8.931c5.893,6.578,13.963,15.586,29.412,15.586s23.52-9.008,29.413-15.586
	c5.404-6.031,8.278-8.931,14.516-8.931c6.24,0,9.114,2.899,14.519,8.932c5.894,6.577,13.964,15.585,29.415,15.585
	s23.521-9.008,29.415-15.585c5.405-6.032,8.28-8.932,14.52-8.932c6.24,0,9.116,2.899,14.521,8.932
	c5.894,6.577,13.965,15.585,29.416,15.585s23.522-9.008,29.416-15.585c5.405-6.032,8.28-8.932,14.52-8.932
	c6.242,0,9.118,2.899,14.523,8.933c5.894,6.576,13.966,15.584,29.418,15.584s23.524-9.008,29.418-15.584
	c1.696-1.893,3.143-3.477,4.523-4.76v195.494H30.727z"/>
<g>
</g>
<g>
</g>
<g>
</g>
<g>
</g>
<g>
</g>
<g>
</g>
<g>
</g>
<g>
</g>
<g>
</g>
<g>
</g>
<g>
</g>
<g>
</g>
<g>
</g>
<g>
</g>
<g>
</g>
</svg>
