<?xml version="1.0" encoding="iso-8859-1"?>
<!-- Generator: Adobe Illustrator 18.0.0, SVG Export Plug-In . SVG Version: 6.00 Build 0)  -->
<!DOCTYPE svg PUBLIC "-//W3C//DTD SVG 1.1//EN" "http://www.w3.org/Graphics/SVG/1.1/DTD/svg11.dtd">
<svg version="1.1" id="Capa_1" xmlns="http://www.w3.org/2000/svg" xmlns:xlink="http://www.w3.org/1999/xlink" x="0px" y="0px"
	 viewBox="0 0 454.845 454.845" style="enable-background:new 0 0 454.845 454.845;" xml:space="preserve">
<g>
	<path d="M338.925,290.021c1.265,3.003,4.403,4.919,7.664,4.592c3.124-0.313,5.769-2.607,6.538-5.644
		c0.8-3.161-0.626-6.586-3.423-8.253c-2.946-1.756-6.714-1.251-9.158,1.125C338.454,283.996,337.769,287.227,338.925,290.021
		C339.115,290.471,338.735,289.562,338.925,290.021z"/>
	<path d="M371.862,295.33c-3.251-2.567-7.968-2.014-10.534,1.236c-2.568,3.25-2.015,7.967,1.235,10.535
		c12.481,9.86,27.359,26.04,27.359,47.125c0,12.863-5.576,25.396-16.112,36.829l-96.781-54.536c0.137-1.133,0.215-2.284,0.215-3.454
		V272.79c15.629,2.688,30.391,6.62,43.966,11.751c0.873,0.33,1.769,0.486,2.65,0.486c3.029,0,5.882-1.849,7.017-4.851
		c1.465-3.875-0.489-8.203-4.364-9.667c-15.206-5.747-31.756-10.082-49.269-12.933v-6.904h4.706
		c13.947,0,25.294-11.347,25.294-25.294v-75.362c0-27.429-19.033-50.483-44.582-56.683c11.088-9.781,18.101-24.079,18.101-39.992
		C280.763,23.928,256.835,0,227.423,0c-29.411,0-53.339,23.928-53.339,53.339c0,15.913,7.013,30.211,18.1,39.992
		c-25.549,6.2-44.583,29.255-44.583,56.684v75.362c0,13.947,11.347,25.294,25.294,25.294h4.706v6.893
		c-34.468,5.644-65.578,17.251-88.158,32.975c-25.486,17.748-39.521,40.365-39.521,63.685c0,27.739,19.066,53.46,53.688,72.424
		c33.194,18.182,77.165,28.196,123.813,28.196s90.618-10.014,123.812-28.196c34.622-18.964,53.688-44.685,53.688-72.424
		C404.922,332.782,393.49,312.417,371.862,295.33z M189.084,53.339c0-21.14,17.199-38.339,38.339-38.339
		c21.141,0,38.34,17.199,38.34,38.339c0,21.14-17.199,38.339-38.34,38.339C206.284,91.678,189.084,74.479,189.084,53.339z
		 M162.602,225.377v-75.362c0-23.896,19.44-43.336,43.336-43.336h42.971c23.896,0,43.336,19.441,43.336,43.336v75.362
		c0,5.676-4.618,10.294-10.294,10.294h-4.706v-83.157c0-4.142-3.357-7.5-7.5-7.5s-7.5,3.358-7.5,7.5v180.549
		c0,7.533-6.128,13.661-13.66,13.661c-7.533,0-13.661-6.128-13.661-13.661v-89.893c0-4.142-3.357-7.5-7.5-7.5s-7.5,3.358-7.5,7.5
		v89.893c0,7.533-6.128,13.661-13.66,13.661c-7.533,0-13.661-6.128-13.661-13.661V152.515c0-4.142-3.357-7.5-7.5-7.5
		s-7.5,3.358-7.5,7.5v83.157h-4.706C167.22,235.671,162.602,231.053,162.602,225.377z M110.817,413.493
		c-29.596-16.211-45.895-37.26-45.895-59.269c0-23.415,17.996-40.862,33.094-51.375c20.259-14.108,48.277-24.647,79.586-30.063
		v60.277c0,10.981,6.211,20.535,15.302,25.346l120.934,68.151c-25.675,8.652-55.36,13.284-86.415,13.284
		C183.25,439.845,141.839,430.486,110.817,413.493z M344.028,413.493c-3.887,2.129-7.938,4.138-12.136,6.025l-110.38-62.204
		c2.186-1.38,4.177-3.041,5.912-4.942c5.245,5.743,12.789,9.352,21.161,9.352c9.244,0,17.474-4.403,22.718-11.216l90.845,51.191
		C356.819,405.85,350.773,409.798,344.028,413.493z"/>
</g>
<g>
</g>
<g>
</g>
<g>
</g>
<g>
</g>
<g>
</g>
<g>
</g>
<g>
</g>
<g>
</g>
<g>
</g>
<g>
</g>
<g>
</g>
<g>
</g>
<g>
</g>
<g>
</g>
<g>
</g>
</svg>
